<svg xmlns="http://www.w3.org/2000/svg" version="1.1" xmlns:xlink="http://www.w3.org/1999/xlink" xmlns:svgjs="http://svgjs.com/svgjs" width="1920" height="1080" preserveAspectRatio="none" viewBox="0 0 1920 1080"><g mask="url(&quot;#SvgjsMask2142&quot;)" fill="none"><rect width="1920" height="1080" x="0" y="0" fill="url(#SvgjsLinearGradient2143)"></rect><path d="M1984 1080L0 1080 L0 914.88Q37.4 856.28, 96 893.68Q192.44 830.12, 256 926.56Q281.27 855.83, 352 881.1Q408.05 841.15, 448 897.2Q548.53 837.74, 608 938.27Q656.73 827, 768 875.73Q860.37 808.1, 928 900.46Q1017.05 829.51, 1088 918.56Q1142.97 813.52, 1248 868.49Q1306.68 831.17, 1344 889.86Q1442.56 828.42, 1504 926.99Q1558.67 821.66, 1664 876.33Q1755.57 807.9, 1824 899.47Q1915.67 831.14, 1984 922.82z" fill="rgba(214, 168, 95, 0.36)"></path><path d="M2016 1080L0 1080 L0 977.02Q43.08 924.1, 96 967.18Q186.73 897.91, 256 988.64Q298.93 935.57, 352 978.49Q391.43 921.92, 448 961.36Q481.52 898.88, 544 932.4Q630.54 858.94, 704 945.48Q792.77 874.25, 864 963.03Q890.98 894.01, 960 920.99Q1013.65 878.64, 1056 932.29Q1121.11 901.39, 1152 966.5Q1190.28 908.77, 1248 947.05Q1350.63 889.68, 1408 992.32Q1419.8 908.12, 1504 919.92Q1594.42 850.34, 1664 940.76Q1735.62 916.38, 1760 987.99Q1792.71 924.7, 1856 957.42Q1943.51 884.93, 2016 972.45z" fill="rgba(168, 161, 150, 0.65)"></path><path d="M1952 1080L0 1080 L0 993.25Q80.88 914.13, 160 995.02Q260.53 935.55, 320 1036.09Q369.18 925.26, 480 974.44Q537.01 935.46, 576 992.47Q629.32 949.79, 672 1003.1Q726.79 961.89, 768 1016.69Q821.56 974.25, 864 1027.81Q889.43 957.24, 960 982.67Q1048.47 911.14, 1120 999.61Q1176.05 959.66, 1216 1015.72Q1308.75 948.47, 1376 1041.21Q1435.22 940.43, 1536 999.66Q1594.91 962.58, 1632 1021.49Q1724.13 953.62, 1792 1045.74Q1852.92 946.66, 1952 1007.58z" fill="rgba(168, 161, 150, 0.63)"></path><path d="M1984 1080L0 1080 L0 1076.9Q48.69 1029.6, 96 1078.29Q122.41 1008.7, 192 1035.12Q245.38 992.49, 288 1045.87Q348.24 1010.11, 384 1070.34Q440.55 1030.88, 480 1087.43Q513.93 1025.37, 576 1059.3Q676.1 999.4, 736 1099.5Q752.12 1019.62, 832 1035.73Q888.36 996.09, 928 1052.44Q997.57 1026.01, 1024 1095.59Q1072.68 984.27, 1184 1032.95Q1245.6 998.55, 1280 1060.14Q1345.85 1029.99, 1376 1095.83Q1398.51 1022.34, 1472 1044.84Q1561.69 974.53, 1632 1064.21Q1698.42 1034.63, 1728 1101.05Q1750.25 1027.3, 1824 1049.54Q1897.66 963.2, 1984 1036.86z" fill="rgba(168, 161, 150, 0.63)"></path></g><defs><mask id="SvgjsMask2142"><rect width="1920" height="1080" fill="#ffffff"></rect></mask><linearGradient x1="50%" y1="0%" x2="50%" y2="100%" gradientUnits="userSpaceOnUse" id="SvgjsLinearGradient2143"><stop stop-color="rgba(168, 161, 150, 1)" offset="0"></stop><stop stop-color="rgba(208, 199, 183, 1)" offset="0.23"></stop></linearGradient></defs></svg>